<svg width="170" height="81" viewBox="0 0 170 81" fill="none" xmlns="http://www.w3.org/2000/svg">
<rect x="0.5" y="0.5" width="169" height="80" rx="3.5" stroke="#AFB1B8"/>
<g clip-path="url(#clip0_75273_666)">
<path fill-rule="evenodd" clip-rule="evenodd" d="M70 21.087L77.0078 27.7211L64 27.7134V59.9007H98V47.594L105 54.2208V21.087H70ZM97.6924 46.8153L77.8226 28.0049H97.6924V46.8153ZM91.5231 55.1925H69.3801V33.5449H70.9453V53.7267H91.5231V55.1925ZM74.6089 64.1861L73.791 65.8707L72.9731 64.1861H72.2871L73.481 66.4322V67.7408H74.1011V66.4322L75.2925 64.1861H74.6089ZM75.6367 67.7408L75.9248 66.9131H77.3018L77.5923 67.7408H78.2368L76.8916 64.1861H76.3374L74.9946 67.7408H75.6367ZM76.6133 64.9405L77.1284 66.4151H76.0981L76.6133 64.9405ZM79.8701 66.3297C79.7806 66.4664 79.7358 66.6169 79.7358 66.7813C79.7358 67.0808 79.8408 67.3241 80.0508 67.5113C80.2624 67.6968 80.5439 67.7896 80.8955 67.7896C81.2471 67.7896 81.5498 67.6944 81.8037 67.504L82.0039 67.7408H82.6924L82.1699 67.1231C82.375 66.8432 82.4775 66.4843 82.4775 66.0464H81.9624C81.9624 66.2857 81.9128 66.503 81.8135 66.6983L81.1274 65.8878L81.3691 65.712C81.54 65.5883 81.6629 65.4646 81.7378 65.3409C81.8127 65.2156 81.8501 65.0788 81.8501 64.9307C81.8501 64.7061 81.7671 64.5181 81.6011 64.3668C81.4367 64.2138 81.2251 64.1373 80.9663 64.1373C80.6798 64.1373 80.452 64.2186 80.2827 64.3814C80.1134 64.5425 80.0288 64.7623 80.0288 65.0406C80.0288 65.1545 80.0557 65.2725 80.1094 65.3946C80.1647 65.5167 80.2616 65.6648 80.3999 65.8389C80.1362 66.0277 79.9596 66.1913 79.8701 66.3297ZM81.4741 67.1158C81.3 67.2492 81.1128 67.316 80.9126 67.316C80.7352 67.316 80.5936 67.2647 80.4878 67.1622C80.382 67.0596 80.3291 66.9262 80.3291 66.7618C80.3291 66.5714 80.4268 66.4021 80.6221 66.254L80.6978 66.2003L81.4741 67.1158ZM80.8369 65.5411C80.6693 65.3344 80.5854 65.1627 80.5854 65.0259C80.5854 64.9071 80.6196 64.8087 80.688 64.7305C80.7563 64.6524 80.8483 64.6133 80.9639 64.6133C81.0713 64.6133 81.16 64.6467 81.23 64.7134C81.3 64.7785 81.335 64.8575 81.335 64.9503C81.335 65.0902 81.2845 65.205 81.1836 65.2945L81.1079 65.3555L80.8369 65.5411ZM86.623 67.4722C86.8672 67.259 87.0072 66.9628 87.043 66.5836H86.4277C86.3952 66.8375 86.3179 67.0189 86.1958 67.128C86.0737 67.237 85.8914 67.2916 85.6489 67.2916C85.3836 67.2916 85.1818 67.1907 85.0435 66.9888C84.9067 66.787 84.8384 66.494 84.8384 66.1099V65.795C84.8416 65.4158 84.9149 65.1285 85.0581 64.9332C85.203 64.7362 85.4097 64.6378 85.6782 64.6378C85.9093 64.6378 86.0843 64.6947 86.2031 64.8087C86.3236 64.921 86.3984 65.1049 86.4277 65.3604H87.043C87.0039 64.9714 86.8647 64.6703 86.6255 64.4571C86.3862 64.2439 86.0705 64.1373 85.6782 64.1373C85.3869 64.1373 85.1297 64.2064 84.9067 64.3448C84.6854 64.4831 84.5153 64.6801 84.3965 64.9356C84.2777 65.1911 84.2183 65.4866 84.2183 65.8218V66.1539C84.2231 66.481 84.2842 66.7683 84.4014 67.0157C84.5186 67.2631 84.6846 67.4543 84.8994 67.5894C85.1159 67.7229 85.3657 67.7896 85.6489 67.7896C86.0542 67.7896 86.3789 67.6838 86.623 67.4722ZM90.2534 66.9742C90.3739 66.7105 90.4341 66.4045 90.4341 66.0562V65.8585C90.4325 65.5118 90.3706 65.2082 90.2485 64.9478C90.1265 64.6858 89.9531 64.4856 89.7285 64.3472C89.5055 64.2073 89.2492 64.1373 88.9595 64.1373C88.6698 64.1373 88.4126 64.2081 88.188 64.3497C87.965 64.4896 87.7917 64.6923 87.668 64.9576C87.5459 65.2229 87.4849 65.5289 87.4849 65.8755V66.0757C87.4865 66.4159 87.5483 66.7162 87.6704 66.9766C87.7941 67.237 87.9683 67.438 88.1929 67.5797C88.4191 67.7196 88.6763 67.7896 88.9644 67.7896C89.2557 67.7896 89.5129 67.7196 89.7358 67.5797C89.9604 67.438 90.133 67.2362 90.2534 66.9742ZM89.5918 64.9649C89.7415 65.1749 89.8164 65.4768 89.8164 65.8707V66.0562C89.8164 66.4566 89.7423 66.761 89.5942 66.9693C89.4478 67.1776 89.2378 67.2818 88.9644 67.2818C88.6942 67.2818 88.4826 67.1752 88.3296 66.962C88.1782 66.7488 88.1025 66.4468 88.1025 66.0562V65.8511C88.1058 65.4686 88.1823 65.1732 88.332 64.9649C88.4834 64.7549 88.6925 64.65 88.9595 64.65C89.2329 64.65 89.4437 64.7549 89.5918 64.9649Z" fill="#AFB1B8"/>
</g>
<defs>
<clipPath id="clip0_75273_666">
<rect width="106" height="52.8261" fill="white" transform="translate(32 14.087)"/>
</clipPath>
</defs>
</svg>
