<svg width="170" height="81" viewBox="0 0 170 81" fill="none" xmlns="http://www.w3.org/2000/svg">
<rect x="0.5" y="0.5" width="169" height="80" rx="3.5" stroke="#AFB1B8"/>
<g clip-path="url(#clip0_75273_674)">
<path fill-rule="evenodd" clip-rule="evenodd" d="M82.1136 20.0215H81.977C81.7671 20.0088 81.5571 20.0037 81.3471 19.9986H81.3471H81.3269H80.8918C80.4946 19.9986 80.0898 20.0088 79.6876 20.0291C79.6573 20.0269 79.6269 20.0269 79.5966 20.0291C75.9522 20.2356 72.3817 21.1465 69.0805 22.7119L68.6479 22.9204V45.0616L69.6598 44.7183C70.5477 44.4131 71.4938 44.1385 72.4728 43.8842C75.1193 43.2048 77.8367 42.8437 80.568 42.8085V45.7176C80.2062 45.7202 79.8546 45.7303 79.503 45.7481H79.4195C77.3175 45.8634 75.2317 46.1837 73.1913 46.7043C70.6072 47.3512 68.1143 48.3226 65.7716 49.5956V21.1989C68.2047 19.7797 70.8253 18.7138 73.5556 18.0329C75.9527 17.414 78.4169 17.0963 80.8918 17.087H81.3193C81.8303 17.0997 82.3287 17.1226 82.7967 17.1582C84.0297 17.2448 85.2528 17.4396 86.4521 17.7405V20.6038C85.2874 20.3325 84.1032 20.1539 82.9105 20.0698C82.8863 20.0678 82.8621 20.0657 82.8379 20.0636C82.5911 20.0426 82.344 20.0215 82.1136 20.0215ZM87.1528 22.9484C87.7877 22.9967 88.4455 23.0196 89.1108 23.0196C91.7125 23.01 94.3031 22.6778 96.8239 22.0304C99.4068 21.3809 101.899 20.4088 104.241 19.1365V47.0272C101.807 48.4455 99.1853 49.5113 96.4546 50.1931C94.0571 50.8097 91.5931 51.1265 89.1184 51.1365C87.2433 51.1517 85.3737 50.9313 83.553 50.4805V22.4093C83.983 22.5084 84.4257 22.6 84.876 22.6763C85.6147 22.8009 86.3939 22.8924 87.1528 22.9484ZM101.347 23.1645L100.335 23.5053C99.4042 23.818 98.4657 24.0978 97.5221 24.347C94.7749 25.0529 91.9514 25.4151 89.1158 25.4252C88.4556 25.4252 87.8485 25.4074 87.2616 25.3692L86.4546 25.3158V45.4048V48.0927L87.1477 48.1537C87.7903 48.2096 88.4531 48.2376 89.1209 48.2376C91.3544 48.2281 93.5781 47.9403 95.7412 47.3806C97.5223 46.9339 99.2552 46.3112 100.914 45.5218L101.347 45.3133V23.1645Z" fill="#AFB1B8"/>
<path d="M67.7371 59.2994C67.5917 59.1485 67.4163 59.0301 67.2224 58.9516C67.0284 58.8732 66.8203 58.8366 66.6114 58.8442C66.3888 58.8413 66.1678 58.8828 65.9613 58.9663C65.7719 59.0417 65.5998 59.1551 65.4553 59.2994C65.3125 59.4442 65.2013 59.6175 65.129 59.808C65.0497 60.0077 65.0101 60.2211 65.0126 60.4361V64.2301C65.0036 64.4975 65.0546 64.7634 65.1619 65.0083C65.2514 65.2027 65.3807 65.376 65.5413 65.5168C65.693 65.6445 65.871 65.7366 66.0625 65.7864C66.2469 65.8382 66.4376 65.8648 66.6291 65.8652C66.8404 65.8673 67.0495 65.8222 67.2413 65.733C67.4309 65.65 67.6028 65.5308 67.7473 65.3821C67.8881 65.2347 68.0005 65.0622 68.0786 64.8735C68.1597 64.6822 68.201 64.4762 68.2001 64.2683V63.8436H67.2084V64.1818C67.2114 64.2973 67.1916 64.4122 67.1502 64.52C67.1179 64.6008 67.0688 64.6736 67.006 64.7336C66.9446 64.7833 66.8742 64.8204 66.7986 64.843C66.7316 64.8653 66.6617 64.8773 66.5912 64.8786C66.5026 64.8889 66.413 64.8755 66.3312 64.8398C66.2495 64.804 66.1786 64.7473 66.1257 64.6751C66.0322 64.5227 65.9864 64.3455 65.9942 64.1666V60.6294C65.988 60.4332 66.0297 60.2385 66.1156 60.0623C66.1671 59.9822 66.2399 59.9183 66.3258 59.8778C66.4117 59.8374 66.5071 59.822 66.6013 59.8334C66.6868 59.8304 66.7717 59.8482 66.8488 59.8854C66.9259 59.9226 66.9929 59.9781 67.044 60.047C67.155 60.1927 67.213 60.3722 67.2084 60.5556V60.8837H68.19V60.4971C68.1919 60.2701 68.1507 60.0449 68.0685 59.8334C67.9953 59.6347 67.8825 59.453 67.7371 59.2994Z" fill="#AFB1B8"/>
<path d="M73.6289 59.2561C73.3127 58.9891 72.9136 58.8416 72.5007 58.8391C72.2987 58.84 72.0984 58.8761 71.9087 58.9459C71.7161 59.0149 71.5384 59.1202 71.3851 59.2561C71.2208 59.4038 71.0897 59.585 71.0005 59.7876C70.9006 60.0194 70.8515 60.27 70.8563 60.5225V64.1614C70.8495 64.4174 70.8987 64.6718 71.0005 64.9065C71.0903 65.1022 71.2215 65.2758 71.3851 65.4151C71.5367 65.5558 71.7147 65.6648 71.9087 65.7355C72.0984 65.8053 72.2987 65.8414 72.5007 65.8423C72.7027 65.8419 72.9031 65.8058 73.0926 65.7355C73.29 65.6638 73.4719 65.5551 73.6289 65.4151C73.7871 65.2732 73.9145 65.1 74.0033 64.9065C74.1051 64.6718 74.1544 64.4174 74.1475 64.1614V60.5225C74.1524 60.27 74.1032 60.0194 74.0033 59.7876C73.9151 59.5871 73.7878 59.4064 73.6289 59.2561ZM73.166 64.1614C73.1743 64.2584 73.1609 64.356 73.1268 64.4471C73.0926 64.5382 73.0386 64.6205 72.9687 64.6878C72.8377 64.7977 72.6725 64.8578 72.5019 64.8578C72.3313 64.8578 72.1662 64.7977 72.0352 64.6878C71.9652 64.6205 71.9112 64.5382 71.8771 64.4471C71.8429 64.356 71.8295 64.2584 71.8379 64.1614V60.5225C71.8295 60.4255 71.8429 60.3279 71.8771 60.2368C71.9112 60.1457 71.9652 60.0635 72.0352 59.9961C72.1662 59.8863 72.3313 59.8261 72.5019 59.8261C72.6725 59.8261 72.8377 59.8863 72.9687 59.9961C73.0386 60.0635 73.0926 60.1457 73.1268 60.2368C73.1609 60.3279 73.1743 60.4255 73.166 60.5225V64.1614Z" fill="#AFB1B8"/>
<path d="M81.3673 65.7864V58.8977H80.4136L79.1614 62.5442H79.1437L77.8813 58.8977H76.9377V65.7864H77.9218V61.5957H77.9395L78.9033 64.5582H79.3941L80.3655 61.5957H80.3832V65.7864H81.3673Z" fill="#AFB1B8"/>
<path d="M86.9581 59.3807C86.8065 59.2107 86.6153 59.0814 86.4015 59.0043C86.1712 58.9294 85.9302 58.8933 85.6881 58.8975H84.226V65.7863H85.2075V63.0959H85.7134C86.0197 63.1098 86.3244 63.0451 86.5988 62.9077C86.822 62.7838 87.0081 62.602 87.1377 62.3813C87.2512 62.1981 87.3277 61.9942 87.3628 61.7812C87.4014 61.522 87.4192 61.2601 87.4159 60.998C87.4255 60.6672 87.3932 60.3365 87.3198 60.0139C87.2543 59.7755 87.1299 59.5577 86.9581 59.3807ZM86.4521 61.4812C86.4479 61.6059 86.4168 61.7282 86.361 61.8397C86.3049 61.9456 86.2162 62.0304 86.1081 62.0813C85.9627 62.1463 85.8041 62.1759 85.6451 62.1677H85.1974V59.8257H85.7033C85.8557 59.8182 86.0075 59.8479 86.146 59.9122C86.2475 59.9704 86.3281 60.0594 86.3762 60.1665C86.4299 60.2875 86.4591 60.418 86.4622 60.5504C86.4622 60.6954 86.4622 60.848 86.4622 61.0082C86.4622 61.1684 86.4723 61.3337 86.4622 61.4812H86.4521Z" fill="#AFB1B8"/>
<path d="M91.6077 58.8977H90.8032L89.2854 65.7864H90.2669L90.5553 64.3065H91.8935L92.1819 65.7864H93.1635L91.6077 58.8977ZM90.702 63.3681L91.1852 60.871H91.2029L91.6836 63.3681H90.702Z" fill="#AFB1B8"/>
<path d="M97.9497 63.0477H97.932L96.4496 58.8977H95.506V65.7864H96.4875V61.644H96.5078L98.0079 65.7864H98.9312V58.8977H97.9497V63.0477Z" fill="#AFB1B8"/>
<path d="M103.948 58.8977L103.158 61.6364H103.138L102.349 58.8977H101.309L102.657 62.8748V65.7864H103.639V62.8748L104.987 58.8977H103.948Z" fill="#AFB1B8"/>
</g>
<defs>
<clipPath id="clip0_75273_674">
<rect width="106" height="52.8261" fill="white" transform="translate(32 14.087)"/>
</clipPath>
</defs>
</svg>
